<svg width="12" height="4" viewBox="0 0 12 4" fill="none" xmlns="http://www.w3.org/2000/svg">
<path d="M10.9883 3.73568C11.4124 3.43868 11.5195 2.84932 11.172 2.46554C10.591 1.82408 9.90184 1.28621 9.13355 0.877747C8.08849 0.322134 6.92677 0.0217439 5.74337 0.00113685C4.55998 -0.0194702 3.3885 0.240291 2.32473 0.759181C1.54269 1.14065 0.835182 1.6542 0.232286 2.27504C-0.128422 2.64649 -0.0419364 3.23922 0.371584 3.55081V3.55081C0.785104 3.86239 1.36828 3.77269 1.74415 3.41659C2.1582 3.02432 2.63085 2.69603 3.14675 2.44439C3.94457 2.05522 4.82318 1.8604 5.71073 1.87585C6.59828 1.89131 7.46957 2.1166 8.25336 2.53331C8.76019 2.80276 9.22112 3.14731 9.62126 3.55376C9.9845 3.92273 10.5642 4.03268 10.9883 3.73568V3.73568Z" fill="#202020"/>
</svg>
