<svg width="36" height="30" viewBox="0 0 36 30" fill="none" xmlns="http://www.w3.org/2000/svg">
<path d="M10.8281 14.8125H3.71875C2.72234 14.8125 1.79484 14.4688 1.10715 13.8443C0.393203 13.1959 0 12.2969 0 11.3125C0 10.3123 0.366133 9.44985 1.05875 8.8182C1.60371 8.32082 2.34719 7.98258 3.17461 7.85106C3.43319 7.17612 3.85859 6.57771 4.41109 6.11172C5.13406 5.50715 6.0293 5.1875 7 5.1875C8.09191 5.18275 9.14273 5.60351 9.92961 6.36055C10.6695 7.07313 11.1489 8.03617 11.3271 9.16219C12.6755 9.3618 14 10.2775 14 11.9688C14 12.8818 13.6653 13.6307 13.0318 14.1352C12.475 14.5782 11.7132 14.8125 10.8281 14.8125Z" fill="white"/>
<path d="M32.1484 27.3438H23.5156C22.3057 27.3438 21.1795 26.9264 20.3444 26.168C19.4775 25.3808 19 24.2891 19 23.0938C19 21.8792 19.4446 20.832 20.2856 20.065C20.9474 19.461 21.8502 19.0503 22.8549 18.8906C23.1689 18.071 23.6854 17.3444 24.3563 16.7785C25.2342 16.0444 26.3213 15.6563 27.5 15.6563C28.8259 15.6505 30.1019 16.1614 31.0574 17.0807C31.9559 17.9459 32.5379 19.1154 32.7544 20.4827C34.3916 20.725 36 21.837 36 23.8906C36 24.9993 35.5936 25.9087 34.8243 26.5213C34.1483 27.0592 33.2232 27.3438 32.1484 27.3438Z" fill="white"/>
<g clip-path="url(#clip0_24_3)">
<path d="M27.8672 4.21875H25.3281C24.9723 4.21875 24.641 4.096 24.3954 3.87295C24.1404 3.64141 24 3.32031 24 2.96875C24 2.61152 24.1308 2.30351 24.3781 2.07793C24.5728 1.90029 24.8383 1.77949 25.1338 1.73252C25.2261 1.49147 25.3781 1.27775 25.5754 1.11133C25.8336 0.895409 26.1533 0.781249 26.5 0.781249C26.89 0.779552 27.2653 0.929823 27.5463 1.20019C27.8105 1.45469 27.9817 1.79863 28.0454 2.20078C28.527 2.27207 29 2.59912 29 3.20312C29 3.5292 28.8805 3.79668 28.6542 3.97685C28.4554 4.13506 28.1833 4.21875 27.8672 4.21875Z" fill="white"/>
</g>
<defs>
<clipPath id="clip0_24_3">
<rect width="5" height="5" fill="white" transform="translate(24)"/>
</clipPath>
</defs>
</svg>
