<svg width="595" height="432" viewBox="0 0 595 432" fill="none" xmlns="http://www.w3.org/2000/svg">
<path d="M561.071 232.941C561.071 224.824 558.156 217.853 552.324 212.029C546.493 206.206 539.513 203.294 531.384 203.294L357.5 203.294L357.5 194.824L497.455 194.824C505.584 194.824 512.564 191.912 518.396 186.088C524.227 180.265 527.143 173.294 527.143 165.176C527.143 157.059 524.227 150.088 518.396 144.265C512.564 138.441 505.584 135.529 497.455 135.529L289.643 135.529L343.982 94.7647C352.994 88.0588 357.5 79.0588 357.5 67.7647C357.5 58.4118 354.187 50.4265 347.56 43.8088C340.933 37.1912 332.937 33.8824 323.571 33.8824C315.973 33.8824 309.169 36.1765 303.161 40.7647C303.161 40.7647 215.598 120.309 147.037 153C121.5 165.176 33.9286 158.118 33.9286 169.412L33.9286 351.529C33.9286 357.529 147.037 358.5 147.037 358.5C165.5 358.5 187.492 367.235 193.5 368.471L281.956 396.794C287.611 397.676 292.824 398.118 297.595 398.118L429.598 398.118C437.727 398.118 444.707 395.206 450.538 389.382C456.37 383.559 459.286 376.588 459.286 368.471C459.286 360.353 456.37 353.382 450.538 347.559C444.707 341.735 437.727 338.824 429.598 338.824L357.5 338.824L357.5 330.353L497.455 330.353C505.584 330.353 512.564 327.441 518.396 321.618C524.227 315.794 527.143 308.824 527.143 300.706C527.143 292.588 524.227 285.618 518.396 279.794C512.564 273.971 505.584 271.059 497.455 271.059L357.5 271.059L357.5 262.588L531.384 262.588C539.513 262.588 546.493 259.676 552.324 253.853C558.156 248.029 561.071 241.059 561.071 232.941ZM595 232.941C595 244.941 591.863 256.015 585.59 266.162C579.317 276.309 570.791 284.118 560.011 289.588C560.718 292.941 561.071 296.647 561.071 300.706C561.071 318.177 554.842 333.132 542.384 345.574C529.926 358.015 514.95 364.235 497.455 364.235L492.949 364.235C494.009 382.765 488.355 398.691 475.985 412.015C463.615 425.338 448.153 432 429.598 432L297.595 432C290.526 432 283.193 431.294 275.594 429.882L147.037 396.794C133.077 394.324 21.189 400.412 12 389.382C2.811 378.353 -1.59907e-05 365.824 -1.53658e-05 351.529L-7.40522e-06 169.412C-6.9424e-06 158.824 7.14043 145.147 12 135.529C16.8596 125.912 138.731 121.5 147.037 115.147L282.751 13.5C294.767 4.50001 308.374 6.54468e-06 323.571 7.20897e-06C342.303 8.02774e-06 358.295 6.61766 371.549 19.853C384.802 33.0882 391.429 49.0588 391.429 67.7647C391.429 81.5294 388.424 92.8235 382.416 101.647L497.455 101.647C514.95 101.647 529.926 107.868 542.384 120.309C554.842 132.75 561.071 147.706 561.071 165.177C561.071 169.235 560.718 172.941 560.011 176.294C570.791 181.765 579.317 189.574 585.59 199.721C591.863 209.868 595 220.941 595 232.941Z" fill="black"/>
</svg>
