<svg width="541" height="427" viewBox="0 0 541 427" fill="none" xmlns="http://www.w3.org/2000/svg">
<path id="Vector" d="M502.215 213.5C502.215 203.678 498.428 195.291 490.853 188.341C483.277 181.392 474.137 177.917 463.431 177.917L424.646 177.917L424.646 169.021L452.825 169.021C462.522 169.021 470.753 166.056 477.52 160.125C484.287 154.194 487.671 146.781 487.671 137.885C487.671 129.36 484.338 122.04 477.672 115.924C471.006 109.808 463.027 106.75 453.734 106.75L323.745 106.75L332.835 97.8542L384.952 97.8542C394.648 97.8542 402.88 94.8889 409.647 88.9583C416.414 83.0278 419.798 75.6146 419.798 66.7188C419.798 58.1936 416.465 50.8731 409.799 44.7572C403.132 38.6413 395.153 35.5834 385.861 35.5833L317.988 35.5833C308.494 35.5833 300.212 38.8266 293.141 45.3132L203.452 131.492C195.574 138.719 185.271 142.333 172.545 142.333C167.293 142.333 48.3799 144.094 44.5418 147.615C40.7037 151.137 38.7847 155.306 38.7847 160.125L38.7847 338.042C38.7847 342.86 40.7037 347.03 44.5418 350.551C48.3799 354.073 167.293 350.551 172.545 350.551L183.76 350.551C192.042 350.551 204.759 358.428 212.031 360.281L335.562 388.637C342.834 390.49 350.611 391.417 358.894 391.417L433.433 391.417C443.129 391.417 451.361 388.451 458.128 382.521C464.895 376.59 468.279 369.177 468.279 360.281C468.279 351.756 464.946 344.436 458.279 338.32C451.613 332.204 443.634 329.146 434.342 329.146L424.646 329.146L424.646 320.25L462.522 320.25C470.602 320.25 477.924 317.933 484.489 313.3C491.055 308.667 495.145 302.736 496.761 295.508C497.165 292.914 497.367 290.783 497.367 289.115C497.367 280.589 494.034 273.269 487.368 267.153C480.702 261.037 472.723 257.979 463.431 257.979L424.646 257.979L424.646 249.083L461.613 249.083C471.915 249.083 480.954 246.072 488.732 240.049C496.509 234.025 500.902 226.38 501.912 217.114C502.114 216.187 502.215 214.983 502.215 213.5ZM541 213.5C541 229.068 535.95 242.875 525.85 254.921C532.718 265.485 536.152 276.883 536.152 289.115C536.152 300.049 533.425 310.335 527.971 319.972C522.517 329.609 514.841 337.578 504.942 343.88C506.356 348.883 507.063 354.351 507.063 360.281C507.063 378.814 499.842 394.567 485.398 407.54C470.955 420.513 453.633 427 433.433 427L358.894 427C348.591 427 337.683 425.795 326.169 423.386L194.04 388.637C189.192 387.525 182.039 382.521 172.545 382.521C156.385 382.521 28.2805 386.227 16.9683 375.849C5.65611 365.47 -7.31812e-06 352.868 -6.67004e-06 338.042L1.10695e-06 160.125C1.78743e-06 144.557 5.90861 131.77 17.7258 121.762C29.543 111.754 158.304 106.75 175.272 106.75L264.962 21.1276C279.708 7.04254 297.384 1.22394e-05 317.988 1.314e-05L385.861 1.61068e-05C405.86 1.6981e-05 422.979 6.5329 437.221 19.5987C451.462 32.6644 458.582 48.3711 458.582 66.7188C458.582 68.7574 458.481 70.24 458.279 71.1667C477.47 72.2787 493.63 79.2749 506.76 92.1553C519.891 105.036 526.456 120.279 526.456 137.885C526.456 147.523 524.335 156.604 520.093 165.129C534.031 178.473 541 194.596 541 213.5Z" fill="black"/>
</svg>
