<svg width="500" height="430" viewBox="0 0 500 430" fill="none" xmlns="http://www.w3.org/2000/svg">
<path d="M319.475 359.955C319.475 371.134 317.336 381.102 313.058 389.859C301.339 416.129 280.32 429.264 250 429.264L200.614 429.264C183.129 429.264 165.83 427.121 148.717 422.836L54.1295 399.081C38.1324 395.168 25.1116 386.738 15.067 373.789C5.02233 360.84 -3.5682e-06 346.168 -2.85153e-06 329.773L5.30873e-06 143.088C6.17199e-06 123.339 6.97546 106.477 20.9264 92.5041C34.8772 78.5306 51.7113 71.5439 71.4286 71.5439L183.315 71.5439L358.538 4.75098C366.908 1.58367 375.372 1.74405e-05 383.929 1.78145e-05C403.646 1.86764e-05 420.48 6.98673 434.431 20.9602C448.382 34.9336 455.357 51.7948 455.357 71.544C455.357 86.4489 451.125 100.003 442.662 112.207C434.198 124.41 423.084 133.12 409.319 138.337L397.042 143.088L428.571 143.088C448.289 143.088 465.123 150.075 479.074 164.048C493.025 178.021 500 194.883 500 214.632C500 234.381 493.025 251.242 479.074 265.216C465.123 279.189 448.289 286.176 428.571 286.176L355.748 286.176C356.678 291.206 357.143 295.678 357.143 299.59C357.143 312.446 353.748 324.323 346.959 335.222C340.169 346.122 331.008 354.366 319.475 359.955ZM321.429 299.59C321.429 293.442 319.754 287.806 316.406 282.682C313.058 277.559 308.594 273.693 303.013 271.084L257.533 250.404L214.286 230.562L214.286 245.932C214.286 255.248 211.356 263.632 205.497 271.084C199.637 278.537 192.15 283.195 183.036 285.058L277.344 328.096C281.064 329.959 285.342 330.891 290.179 330.891C298.735 330.891 306.083 327.817 312.221 321.668C318.359 315.52 321.429 308.161 321.429 299.59ZM283.761 361.353C283.761 357.254 283.017 353.481 281.529 350.034C280.041 346.588 278.553 343.886 277.065 341.93C275.577 339.973 272.833 337.784 268.834 335.362C264.834 332.94 261.998 331.356 260.324 330.611C258.65 329.866 255.208 328.282 250 325.86L169.085 288.97C165.365 287.107 161.086 286.176 156.25 286.176C147.693 286.176 140.346 289.25 134.208 295.398C128.069 301.546 125 308.906 125 317.476C125 323.624 126.674 329.26 130.022 334.384C133.371 339.508 137.835 343.374 143.415 345.982L241.629 390.697C244.978 392.374 248.512 393.212 252.232 393.212C261.533 393.212 269.113 390.231 274.972 384.269C280.831 378.307 283.761 370.668 283.761 361.353ZM383.929 35.772C379.836 35.772 375.558 36.5172 371.094 38.0077L189.732 107.316L170.48 107.316L201.451 135.822C210.007 143.833 214.286 153.708 214.286 165.445L214.286 220.78L279.297 250.404L428.571 250.404C438.43 250.404 446.847 246.91 453.823 239.924C460.798 232.937 464.286 224.506 464.286 214.632C464.286 204.757 460.798 196.327 453.823 189.34C446.847 182.353 438.43 178.86 428.571 178.86L250 178.86L250 160.974L396.763 105.08C403.646 102.472 409.18 98.0935 413.365 91.9452C417.55 85.7968 419.643 78.9964 419.643 71.5439C419.643 61.6694 416.155 53.2388 409.18 46.2521C402.204 39.2653 393.787 35.772 383.929 35.772ZM35.7143 329.773C35.7143 337.971 38.2255 345.283 43.2478 351.711C48.2701 358.139 54.7805 362.377 62.779 364.427L157.366 388.182C170.945 391.722 185.361 393.492 200.614 393.492L226.004 393.492L139.509 354.087C132.44 350.919 126.767 345.982 122.489 339.275C118.211 332.567 116.071 325.301 116.071 317.476C116.071 307.602 119.28 298.892 125.698 291.346C132.115 283.8 140.16 279.282 149.833 277.792C139.23 269.594 133.929 258.974 133.929 245.932L133.929 187.803L142.857 187.803L142.857 245.932C142.857 254.503 145.926 262.048 152.065 268.569C158.203 275.09 165.551 278.351 174.107 278.351C182.664 278.351 190.011 275.463 196.15 269.687C202.288 263.911 205.357 256.738 205.357 248.168L205.357 165.445C205.357 156.316 202.009 148.677 195.313 142.529L157.366 107.316L71.4286 107.316C61.57 107.316 53.1529 110.809 46.1775 117.796C39.202 124.783 35.7143 133.213 35.7143 143.088L35.7143 329.773Z" fill="black"/>
</svg>
